<svg width="15" height="17" viewBox="0 0 15 17" fill="none" xmlns="http://www.w3.org/2000/svg">
<path d="M9.125 7.25C9.125 8.40059 7.30616 9.33333 5.0625 9.33333C2.81884 9.33333 1 8.40059 1 7.25M9.125 7.25C9.125 6.09941 7.30616 5.16667 5.0625 5.16667C2.81884 5.16667 1 6.09941 1 7.25M9.125 7.25V10.5833M1 7.25V10.5833M14 3.08333C14 1.93274 12.1812 1 9.9375 1C8.32948 1 6.93967 1.4791 6.28125 2.17414M14 3.08333C14 3.85446 13.183 4.52774 11.9688 4.88795M14 3.08333V10.1667C14 10.7836 13.183 11.3222 11.9688 11.6104M14 6.83333C14 7.4639 13.1464 8.01269 11.8875 8.29581M9.125 10.5833C9.125 11.7339 7.30616 12.6667 5.0625 12.6667C2.81884 12.6667 1 11.7339 1 10.5833M9.125 10.5833V13.9167C9.125 15.0673 7.30616 16 5.0625 16C2.81884 16 1 15.0673 1 13.9167V10.5833" stroke="black" stroke-width="1.2" stroke-linecap="round" stroke-linejoin="round"/>
</svg>
