<svg width="14" height="12" viewBox="0 0 14 12" fill="none" xmlns="http://www.w3.org/2000/svg">
<path fill-rule="evenodd" clip-rule="evenodd" d="M1.43202 4.87296C4.93026 3.34883 7.26297 2.34403 8.43015 1.85856C11.7627 0.472451 12.4551 0.231668 12.9065 0.223718C13.0058 0.221969 13.2277 0.246571 13.3715 0.363234C13.4929 0.461742 13.5263 0.594812 13.5423 0.688208C13.5583 0.781604 13.5782 0.994364 13.5623 1.16061C13.3818 3.05809 12.6003 7.66278 12.2028 9.78799C12.0346 10.6872 11.7034 10.9888 11.3827 11.0183C10.6859 11.0824 10.1567 10.5577 9.48174 10.1153C8.42558 9.42298 7.82892 8.992 6.80374 8.31642C5.61896 7.53568 6.387 7.10656 7.0622 6.40527C7.23891 6.22174 10.3093 3.42898 10.3687 3.17564C10.3762 3.14395 10.3831 3.02585 10.3129 2.96348C10.2427 2.90111 10.1392 2.92244 10.0644 2.9394C9.95851 2.96344 8.27128 4.07864 5.00276 6.28498C4.52385 6.61383 4.09007 6.77406 3.70141 6.76567C3.27295 6.75641 2.44876 6.52341 1.83606 6.32424C1.08456 6.07996 0.48728 5.95081 0.53929 5.53594C0.56638 5.31985 0.863955 5.09886 1.43202 4.87296Z" fill="white"/>
</svg>
