<svg width="17" height="19" viewBox="0 0 17 19" fill="none" xmlns="http://www.w3.org/2000/svg">
<path d="M3.83333 7.61111V5.72222C3.83333 3.11421 5.94754 1 8.55556 1C10.492 1 12.1562 2.16553 12.8848 3.83333M5.53333 18H11.5778C13.1646 18 13.958 18 14.5641 17.6912C15.0972 17.4195 15.5307 16.9861 15.8023 16.453C16.1111 15.8469 16.1111 15.0535 16.1111 13.4667V12.1444C16.1111 10.5576 16.1111 9.76422 15.8023 9.15814C15.5307 8.62501 15.0972 8.19157 14.5641 7.91993C13.958 7.61111 13.1646 7.61111 11.5778 7.61111H5.53333C3.94652 7.61111 3.15311 7.61111 2.54703 7.91993C2.0139 8.19157 1.58046 8.62501 1.30881 9.15814C1 9.76422 1 10.5576 1 12.1444V13.4667C1 15.0535 1 15.8469 1.30881 16.453C1.58046 16.9861 2.0139 17.4195 2.54703 17.6912C3.15311 18 3.94652 18 5.53333 18Z" stroke="white" stroke-width="1.4" stroke-linecap="round" stroke-linejoin="round"/>
</svg>
