<svg width="19" height="17" viewBox="0 0 19 17" fill="none" xmlns="http://www.w3.org/2000/svg">
<path fill-rule="evenodd" clip-rule="evenodd" d="M12.3095 1.00491C12.4276 1.01537 12.6065 1.0537 12.7032 1.08855C12.8034 1.1234 12.9537 1.20006 13.0432 1.25582C13.1326 1.31506 14.2278 2.3605 15.4804 3.58366C17.6027 5.65363 17.7674 5.82439 17.8783 6.0509C17.9928 6.2809 18 6.31574 18 6.66074C18 6.98831 17.9893 7.05104 17.8962 7.25316C17.796 7.46921 17.5634 7.70269 13.5657 11.5987C10.7526 14.3447 9.28526 15.7491 9.17789 15.8049C9.08842 15.8536 8.92021 15.9164 8.80211 15.9442C8.61958 15.993 8.30821 16 6.79789 16C5.29474 16 4.97263 15.993 4.79368 15.9477C4.67558 15.9164 4.50737 15.8502 4.41789 15.8014C4.32484 15.7491 3.62337 15.1009 2.76084 14.2611C1.36505 12.909 1.25768 12.794 1.13242 12.5535C1.00358 12.3026 1 12.2782 1 11.9263C1 11.5952 1.01074 11.536 1.10379 11.3304C1.204 11.1143 1.46884 10.8495 6.23958 6.19726C10.9817 1.57293 11.2859 1.2837 11.5221 1.1687C11.6617 1.10249 11.8442 1.03628 11.9337 1.01885C12.0232 1.00143 12.1914 0.994458 12.3095 1.00491ZM9.39263 4.73365C7.94316 6.14847 6.75495 7.31937 6.75137 7.34028C6.74779 7.3577 7.81432 8.41708 9.12421 9.69251L11.5042 12.0099C16.8118 6.84195 16.8368 6.81756 16.8368 6.67816C16.8368 6.53877 16.8118 6.51438 14.5893 4.35032L12.3453 2.16535H12.0267L9.39263 4.73365ZM2.14526 11.766C2.16316 12.0796 2.16674 12.0831 3.53032 13.4143C4.28547 14.1496 4.944 14.7734 4.99768 14.7977C5.08 14.8396 5.39495 14.85 6.79789 14.85C8.20442 14.85 8.51221 14.8396 8.59453 14.7977C8.64821 14.7699 9.13495 14.3168 9.67895 13.7872L10.6632 12.8288C6.97326 9.23601 5.88526 8.19405 5.86379 8.19405C5.84589 8.19405 5.00126 8.99556 3.98842 9.98175L2.14526 11.766Z" fill="#A9A9A9" stroke="#A9A9A9" stroke-width="0.5"/>
</svg>
