<svg width="35" height="35" viewBox="0 0 35 35" fill="none" xmlns="http://www.w3.org/2000/svg">
<path fill-rule="evenodd" clip-rule="evenodd" d="M13.3999 3.9738C14.4434 -0.324605 20.5566 -0.324599 21.6001 3.97381C21.8748 5.10523 23.171 5.64215 24.1653 5.03634C27.9426 2.73479 32.2652 7.05742 29.9637 10.8347C29.3578 11.829 29.8948 13.1252 31.0262 13.3999C35.3246 14.4434 35.3246 20.5566 31.0262 21.6001C29.8948 21.8748 29.3578 23.171 29.9637 24.1653C32.2652 27.9426 27.9426 32.2652 24.1653 29.9637C23.171 29.3578 21.8748 29.8948 21.6001 31.0262C20.5566 35.3246 14.4434 35.3246 13.3999 31.0262C13.1252 29.8948 11.829 29.3578 10.8347 29.9637C7.05743 32.2652 2.73479 27.9426 5.03634 24.1653C5.64215 23.171 5.10523 21.8748 3.97381 21.6001C-0.324599 20.5566 -0.324605 14.4434 3.9738 13.3999C5.10523 13.1252 5.64215 11.829 5.03634 10.8347C2.73479 7.05742 7.05742 2.73478 10.8347 5.03634C11.829 5.64215 13.1252 5.10522 13.3999 3.9738ZM19.1707 4.56359C18.7455 2.81213 16.2546 2.81214 15.8294 4.56359C15.1553 7.34031 11.974 8.65803 9.53391 7.17125C7.99478 6.23344 6.23345 7.99478 7.17125 9.53391C8.65803 11.974 7.34031 15.1553 4.56359 15.8294C2.81214 16.2545 2.81213 18.7455 4.56359 19.1706C7.34031 19.8447 8.65803 23.026 7.17125 25.4661C6.23345 27.0052 7.99478 28.7666 9.53391 27.8287C11.974 26.342 15.1553 27.6597 15.8294 30.4364C16.2546 32.1879 18.7455 32.1879 19.1707 30.4364C19.8447 27.6597 23.026 26.342 25.4661 27.8287C27.0052 28.7666 28.7666 27.0052 27.8287 25.4661C26.342 23.026 27.6597 19.8447 30.4364 19.1706C32.1879 18.7455 32.1879 16.2545 30.4364 15.8294C27.6597 15.1553 26.342 11.974 27.8287 9.53391C28.7666 7.99478 27.0052 6.23345 25.4661 7.17125C23.026 8.65803 19.8447 7.34031 19.1707 4.56359ZM17.5 13.5833C15.3369 13.5833 13.5833 15.3369 13.5833 17.5C13.5833 19.6631 15.3369 21.4167 17.5 21.4167C19.6631 21.4167 21.4167 19.6631 21.4167 17.5C21.4167 15.3369 19.6631 13.5833 17.5 13.5833ZM11.0833 17.5C11.0833 13.9562 13.9562 11.0833 17.5 11.0833C21.0438 11.0833 23.9167 13.9562 23.9167 17.5C23.9167 21.0438 21.0438 23.9167 17.5 23.9167C13.9562 23.9167 11.0833 21.0438 11.0833 17.5Z" fill="#2666E0"/>
</svg>
