<svg width="17" height="15" viewBox="0 0 17 15" fill="none" xmlns="http://www.w3.org/2000/svg">
<path d="M4.33333 4.25H12C13.4001 4.25 14.1002 4.25 14.635 4.51567C15.1054 4.74936 15.4878 5.12225 15.7275 5.5809C16 6.10231 16 6.78487 16 8.15V10.1C16 11.4651 16 12.1477 15.7275 12.6691C15.4878 13.1277 15.1054 13.5006 14.635 13.7343C14.1002 14 13.4001 14 12 14H5C3.59987 14 2.8998 14 2.36502 13.7343C1.89462 13.5006 1.51217 13.1277 1.27248 12.6691C1 12.1477 1 11.4651 1 10.1V4.9C1 3.53487 1 2.85231 1.27248 2.3309C1.51217 1.87225 1.89462 1.49936 2.36502 1.26567C2.8998 1 3.59987 1 5 1H15.1667M12.2498 9.24703H12.2573M12.6248 9.24703C12.6248 9.44896 12.4569 9.61266 12.2498 9.61266C12.0427 9.61266 11.8748 9.44896 11.8748 9.24703C11.8748 9.0451 12.0427 8.88141 12.2498 8.88141C12.4569 8.88141 12.6248 9.0451 12.6248 9.24703Z" stroke="white" stroke-width="1.3" stroke-linecap="round" stroke-linejoin="round"/>
</svg>
