<svg width="13" height="15" viewBox="0 0 13 15" fill="none" xmlns="http://www.w3.org/2000/svg">
<path d="M10.3891 10.6146C9.749 11.27 8.41457 12.6365 7.48857 13.5847C6.94798 14.1383 6.05221 14.1385 5.51162 13.5849C4.60179 12.6532 3.29316 11.3132 2.61091 10.6146C0.463029 8.41509 0.463029 4.84906 2.61091 2.6496C4.7588 0.450134 8.2412 0.450134 10.3891 2.6496C12.537 4.84906 12.537 8.41509 10.3891 10.6146Z" stroke="#939191" stroke-linecap="round" stroke-linejoin="round"/>
<path d="M8.5625 6.63208C8.5625 7.79852 7.63909 8.7441 6.5 8.7441C5.36091 8.7441 4.4375 7.79852 4.4375 6.63208C4.4375 5.46563 5.36091 4.52005 6.5 4.52005C7.63909 4.52005 8.5625 5.46563 8.5625 6.63208Z" stroke="#939191" stroke-linecap="round" stroke-linejoin="round"/>
</svg>
