<svg width="164" height="23" viewBox="0 0 164 23" fill="none" xmlns="http://www.w3.org/2000/svg">
<path d="M12.262 5.204L8.348 14.666H17.696L13.896 5.204H12.262ZM9.298 0.985999H17.012L25.942 22H20.926L19.558 18.808H6.6L5.232 22H0.14L9.298 0.985999ZM28.9918 0.985999H41.3798C46.3198 0.985999 50.0438 4.292 50.0438 9.232C50.0438 12.462 48.4478 14.894 45.9778 16.224L49.2078 22H44.0398L41.5698 17.326H33.7418V22H28.9918V0.985999ZM33.7418 5.318V12.994H41.1898C43.6218 12.994 45.2938 11.664 45.2938 9.232C45.2938 6.8 43.6218 5.318 41.1898 5.318H33.7418ZM51.6107 0.985999H73.4607V5.242H64.9107V22H60.1607V5.242H51.6107V0.985999Z" fill="#2666E0"/>
<path d="M75.7318 0.985999H80.7858L86.1438 17.896H86.4098L90.9698 0.985999H96.7078L101.382 17.896H101.61L107.082 0.985999H112.06L104.498 22H97.9618L93.8958 6.23H93.6678L89.5258 22H83.0658L75.7318 0.985999ZM117.936 11.512C117.936 15.844 121.014 18.466 124.966 18.466C128.918 18.466 131.996 15.844 131.996 11.512C131.996 7.18 128.918 4.558 124.966 4.558C121.014 4.558 117.936 7.18 117.936 11.512ZM136.746 11.512C136.746 18.124 131.35 22.532 124.966 22.532C118.582 22.532 113.186 18.124 113.186 11.512C113.186 4.9 118.582 0.491998 124.966 0.491998C131.35 0.491998 136.746 4.9 136.746 11.512ZM144.692 11.512C144.692 15.844 147.77 18.466 151.722 18.466C155.674 18.466 158.752 15.844 158.752 11.512C158.752 7.18 155.674 4.558 151.722 4.558C147.77 4.558 144.692 7.18 144.692 11.512ZM163.502 11.512C163.502 18.124 158.106 22.532 151.722 22.532C145.338 22.532 139.942 18.124 139.942 11.512C139.942 4.9 145.338 0.491998 151.722 0.491998C158.106 0.491998 163.502 4.9 163.502 11.512Z" fill="black"/>
</svg>
