<svg width="112" height="15" viewBox="0 0 112 15" fill="none" xmlns="http://www.w3.org/2000/svg">
<path d="M8.31079 3.2069L5.62737 9.64655H12.0363L9.43105 3.2069H8.31079ZM6.27868 0.336207H11.5674L17.6897 14.6379H14.2508L13.3129 12.4655H4.42895L3.49105 14.6379H0L6.27868 0.336207Z" fill="#0947BE"/>
<path d="M19.7807 0.336207H28.2738C31.6606 0.336207 34.2138 2.58621 34.2138 5.94828C34.2138 8.14655 33.1196 9.80172 31.4262 10.7069L33.6406 14.6379H30.0975L28.4041 11.4569H23.0372V14.6379H19.7807V0.336207ZM23.0372 3.28448V8.50862H28.1435C29.8109 8.50862 30.9572 7.60345 30.9572 5.94828C30.9572 4.2931 29.8109 3.28448 28.1435 3.28448H23.0372Z" fill="#0947BE"/>
<path d="M35.2881 0.336207H50.2683V3.23276H44.4065V14.6379H41.1499V3.23276H35.2881V0.336207Z" fill="#0947BE"/>
<path d="M51.8254 0.336207H55.2904L58.9638 11.8448H59.1462L62.2725 0.336207H66.2064L69.4109 11.8448H69.5672L73.3188 0.336207H76.7317L71.5472 14.6379H67.0662L64.2785 3.90517H64.1222L61.2825 14.6379H56.8535L51.8254 0.336207Z" fill="#4E86F0"/>
<path d="M80.7603 7.5C80.7603 10.4483 82.8705 12.2328 85.58 12.2328C88.2895 12.2328 90.3997 10.4483 90.3997 7.5C90.3997 4.55172 88.2895 2.76724 85.58 2.76724C82.8705 2.76724 80.7603 4.55172 80.7603 7.5ZM93.6563 7.5C93.6563 12 89.9568 15 85.58 15C81.2032 15 77.5037 12 77.5037 7.5C77.5037 3 81.2032 0 85.58 0C89.9568 0 93.6563 3 93.6563 7.5Z" fill="#4E86F0"/>
<path d="M99.104 7.5C99.104 10.4483 101.214 12.2328 103.924 12.2328C106.633 12.2328 108.743 10.4483 108.743 7.5C108.743 4.55172 106.633 2.76724 103.924 2.76724C101.214 2.76724 99.104 4.55172 99.104 7.5ZM112 7.5C112 12 108.301 15 103.924 15C99.5468 15 95.8474 12 95.8474 7.5C95.8474 3 99.5468 0 103.924 0C108.301 0 112 3 112 7.5Z" fill="#4E86F0"/>
</svg>
