<svg width="25" height="24" viewBox="0 0 25 24" fill="none" xmlns="http://www.w3.org/2000/svg">
<path fill-rule="evenodd" clip-rule="evenodd" d="M2.94714 1L1.49336 2.45378L5.67184 6.63225C5.28261 6.95483 4.8974 7.30126 4.51644 7.66966C3.66403 8.494 2.89285 9.37405 2.21398 10.2545C1.80433 10.7858 1.51348 11.2037 1.35424 11.4527L1 12.0065L1.35424 12.5604C1.51348 12.8094 1.80433 13.2273 2.21398 13.7586C2.89285 14.639 3.66403 15.5191 4.51644 16.3434C7.01505 18.7597 9.69615 20.2303 12.5 20.2303C14.269 20.2303 15.9892 19.6449 17.6455 18.6059L22.0529 23.0133L23.5067 21.5595L2.94714 1ZM16.1437 17.1041L14.5888 15.5493C13.9767 15.911 13.2626 16.1186 12.5 16.1186C10.2291 16.1186 8.3881 14.2776 8.3881 12.0067C8.3881 11.2441 8.59569 10.53 8.95743 9.91784L7.13363 8.09404C6.73541 8.41518 6.3391 8.76712 5.94567 9.14758C5.17037 9.89734 4.46369 10.7038 3.84213 11.5099C3.70789 11.684 3.58384 11.8501 3.47043 12.0065C3.58384 12.163 3.70789 12.3291 3.84213 12.5032C4.46369 13.3093 5.17037 14.1157 5.94567 14.8655C8.09769 16.9466 10.336 18.1744 12.5 18.1744C13.7008 18.1744 14.9246 17.7963 16.1437 17.1041ZM10.5137 11.4741C10.4683 11.644 10.4441 11.8225 10.4441 12.0067C10.4441 13.1421 11.3645 14.0626 12.5 14.0626C12.6842 14.0626 12.8627 14.0384 13.0326 13.993L10.5137 11.4741ZM20.8246 16.0068L19.3708 14.553C20.0227 13.894 20.622 13.1987 21.1579 12.5036C21.2921 12.3295 21.4162 12.1634 21.5296 12.007C21.4162 11.8506 21.2921 11.6845 21.1579 11.5104C20.5363 10.7043 19.8296 9.8978 19.0543 9.14804C16.9023 7.06693 14.664 5.83914 12.5 5.83914C11.9631 5.83914 11.4216 5.91473 10.878 6.06017L9.25176 4.43394C10.3131 4.01076 11.3971 3.78319 12.5 3.78319C15.3039 3.78319 17.985 5.25384 20.4836 7.67012C21.336 8.49445 22.1072 9.37451 22.786 10.2549C23.1957 10.7862 23.4865 11.2041 23.6458 11.4531L24 12.007L23.6458 12.5609C23.4865 12.8099 23.1957 13.2278 22.786 13.7591C22.1989 14.5205 21.5427 15.2817 20.8246 16.0068Z" fill="#77A0AD"/>
<path d="M1.49336 2.45378L1.3873 2.34771L1.28123 2.45378L1.3873 2.55984L1.49336 2.45378ZM2.94714 1L3.05321 0.893934L2.94714 0.787868L2.84108 0.893934L2.94714 1ZM5.67184 6.63225L5.76755 6.74774L5.89437 6.64265L5.7779 6.52618L5.67184 6.63225ZM4.51644 7.66966L4.62072 7.77749L4.51644 7.66966ZM2.21398 10.2545L2.09519 10.1629L2.21398 10.2545ZM1.35424 11.4527L1.22787 11.3718L1.22787 11.3719L1.35424 11.4527ZM1 12.0065L0.873635 11.9257L0.821945 12.0065L0.873635 12.0874L1 12.0065ZM1.35424 12.5604L1.22787 12.6412L1.22787 12.6412L1.35424 12.5604ZM2.21398 13.7586L2.33277 13.667H2.33277L2.21398 13.7586ZM4.51644 16.3434L4.62072 16.2356L4.51644 16.3434ZM17.6455 18.6059L17.7516 18.4999L17.6671 18.4153L17.5658 18.4789L17.6455 18.6059ZM22.0529 23.0133L21.9468 23.1194L22.0529 23.2254L22.1589 23.1194L22.0529 23.0133ZM23.5067 21.5595L23.6127 21.6656L23.7188 21.5595L23.6127 21.4535L23.5067 21.5595ZM16.1437 17.1041L16.2178 17.2346L16.3891 17.1373L16.2498 16.9981L16.1437 17.1041ZM14.5888 15.5493L14.6949 15.4432L14.6127 15.3609L14.5125 15.4201L14.5888 15.5493ZM8.95743 9.91784L9.08657 9.99415L9.14574 9.89402L9.0635 9.81178L8.95743 9.91784ZM7.13363 8.09404L7.23969 7.98797L7.14438 7.89266L7.03946 7.97728L7.13363 8.09404ZM5.94567 9.14758L5.84139 9.03976L5.94567 9.14758ZM3.84213 11.5099L3.96092 11.6015L3.84213 11.5099ZM3.47043 12.0065L3.34899 11.9185L3.28516 12.0065L3.34899 12.0946L3.47043 12.0065ZM3.84213 12.5032L3.96092 12.4116L3.84213 12.5032ZM5.94567 14.8655L5.84139 14.9733L5.94567 14.8655ZM10.5137 11.4741L10.6198 11.368L10.436 11.1842L10.3688 11.4354L10.5137 11.4741ZM13.0326 13.993L13.0713 14.1379L13.3224 14.0707L13.1386 13.8869L13.0326 13.993ZM19.3708 14.553L19.2642 14.4475L19.1593 14.5536L19.2648 14.6591L19.3708 14.553ZM20.8246 16.0068L20.7186 16.1129L20.8251 16.2195L20.9312 16.1124L20.8246 16.0068ZM21.1579 12.5036L21.2767 12.5952L21.1579 12.5036ZM21.5296 12.007L21.651 12.095L21.7148 12.007L21.651 11.919L21.5296 12.007ZM21.1579 11.5104L21.2767 11.4188L21.1579 11.5104ZM19.0543 9.14804L18.9501 9.25587L19.0543 9.14804ZM10.878 6.06017L10.7719 6.16624L10.8331 6.22745L10.9168 6.20508L10.878 6.06017ZM9.25176 4.43394L9.1962 4.29461L8.98465 4.37896L9.14569 4.54001L9.25176 4.43394ZM20.4836 7.67012L20.5878 7.56229L20.4836 7.67012ZM22.786 10.2549L22.9048 10.1633L22.786 10.2549ZM23.6458 11.4531L23.5194 11.5339V11.5339L23.6458 11.4531ZM24 12.007L24.1264 12.0878L24.1781 12.007L24.1264 11.9262L24 12.007ZM23.6458 12.5609L23.5194 12.48L23.6458 12.5609ZM22.786 13.7591L22.9048 13.8506L22.786 13.7591ZM1.59943 2.55984L3.05321 1.10607L2.84108 0.893934L1.3873 2.34771L1.59943 2.55984ZM5.7779 6.52618L1.59943 2.34771L1.3873 2.55984L5.56577 6.73832L5.7779 6.52618ZM5.57612 6.51676C5.18371 6.84197 4.79566 7.19098 4.41217 7.56184L4.62072 7.77749C4.99914 7.41153 5.3815 7.06769 5.76755 6.74774L5.57612 6.51676ZM4.41217 7.56184C3.55398 8.39175 2.77802 9.27734 2.09519 10.1629L2.33277 10.3461C3.00769 9.47077 3.77407 8.59625 4.62072 7.77749L4.41217 7.56184ZM2.09519 10.1629C1.68361 10.6967 1.39007 11.1183 1.22787 11.3718L1.48061 11.5335C1.6369 11.2891 1.92505 10.8748 2.33277 10.3461L2.09519 10.1629ZM1.22787 11.3719L0.873635 11.9257L1.12637 12.0874L1.48061 11.5335L1.22787 11.3719ZM0.873635 12.0874L1.22787 12.6412L1.48061 12.4796L1.12637 11.9257L0.873635 12.0874ZM1.22787 12.6412C1.39007 12.8948 1.68361 13.3164 2.09519 13.8502L2.33277 13.667C1.92505 13.1382 1.6369 12.724 1.48061 12.4796L1.22787 12.6412ZM2.09519 13.8502C2.77802 14.7357 3.55398 15.6213 4.41217 16.4512L4.62072 16.2356C3.77407 15.4168 3.00769 14.5423 2.33277 13.667L2.09519 13.8502ZM4.41217 16.4512C6.9249 18.8812 9.64149 20.3803 12.5 20.3803V20.0803C9.7508 20.0803 7.1052 18.6382 4.62072 16.2356L4.41217 16.4512ZM12.5 20.3803C14.3034 20.3803 16.0508 19.7833 17.7252 18.733L17.5658 18.4789C15.9276 19.5065 14.2347 20.0803 12.5 20.0803V20.3803ZM22.1589 22.9072L17.7516 18.4999L17.5394 18.712L21.9468 23.1194L22.1589 22.9072ZM23.4006 21.4535L21.9468 22.9072L22.1589 23.1194L23.6127 21.6656L23.4006 21.4535ZM2.84108 1.10607L23.4006 21.6656L23.6127 21.4535L3.05321 0.893934L2.84108 1.10607ZM16.2498 16.9981L14.6949 15.4432L14.4828 15.6553L16.0377 17.2102L16.2498 16.9981ZM12.5 16.2686C13.2902 16.2686 14.0305 16.0534 14.6652 15.6784L14.5125 15.4201C13.9228 15.7686 13.235 15.9686 12.5 15.9686V16.2686ZM8.2381 12.0067C8.2381 14.3605 10.1462 16.2686 12.5 16.2686V15.9686C10.3119 15.9686 8.5381 14.1948 8.5381 12.0067H8.2381ZM8.82829 9.84153C8.45327 10.4762 8.2381 11.2165 8.2381 12.0067H8.5381C8.5381 11.2717 8.73811 10.5839 9.08657 9.99415L8.82829 9.84153ZM9.0635 9.81178L7.23969 7.98797L7.02756 8.20011L8.85136 10.0239L9.0635 9.81178ZM6.04994 9.25541C6.44043 8.87779 6.83338 8.52886 7.22779 8.2108L7.03946 7.97728C6.63744 8.30149 6.23776 8.65645 5.84139 9.03976L6.04994 9.25541ZM3.96092 11.6015C4.57854 10.8005 5.28043 9.99957 6.04994 9.25541L5.84139 9.03976C5.06031 9.79511 4.34883 10.6071 3.72334 11.4183L3.96092 11.6015ZM3.59188 12.0946C3.7044 11.9394 3.82756 11.7744 3.96092 11.6015L3.72334 11.4183C3.58822 11.5935 3.46328 11.7608 3.34899 11.9185L3.59188 12.0946ZM3.96092 12.4116C3.82756 12.2386 3.7044 12.0737 3.59188 11.9185L3.34899 12.0946C3.46328 12.2522 3.58822 12.4195 3.72334 12.5948L3.96092 12.4116ZM6.04994 14.7577C5.28043 14.0135 4.57854 13.2126 3.96092 12.4116L3.72334 12.5948C4.34883 13.406 5.06031 14.218 5.84139 14.9733L6.04994 14.7577ZM12.5 18.0244C10.3925 18.0244 8.18986 16.8271 6.04994 14.7577L5.84139 14.9733C8.00551 17.0661 10.2796 18.3244 12.5 18.3244V18.0244ZM16.0697 16.9737C14.8672 17.6564 13.6688 18.0244 12.5 18.0244V18.3244C13.7328 18.3244 14.9819 17.9362 16.2178 17.2346L16.0697 16.9737ZM10.5941 12.0067C10.5941 11.8357 10.6165 11.6702 10.6586 11.5129L10.3688 11.4354C10.32 11.6177 10.2941 11.8093 10.2941 12.0067H10.5941ZM12.5 13.9126C11.4474 13.9126 10.5941 13.0593 10.5941 12.0067H10.2941C10.2941 13.225 11.2817 14.2126 12.5 14.2126V13.9126ZM12.9938 13.8481C12.8365 13.8902 12.671 13.9126 12.5 13.9126V14.2126C12.6974 14.2126 12.8889 14.1867 13.0713 14.1379L12.9938 13.8481ZM13.1386 13.8869L10.6198 11.368L10.4076 11.5802L12.9265 14.099L13.1386 13.8869ZM19.2648 14.6591L20.7186 16.1129L20.9307 15.9007L19.4769 14.4469L19.2648 14.6591ZM21.0391 12.412C20.5066 13.1027 19.9114 13.7933 19.2642 14.4475L19.4775 14.6585C20.1341 13.9947 20.7373 13.2947 21.2767 12.5952L21.0391 12.412ZM21.4081 11.919C21.2956 12.0742 21.1725 12.2391 21.0391 12.412L21.2767 12.5952C21.4118 12.42 21.5367 12.2527 21.651 12.095L21.4081 11.919ZM21.0391 11.602C21.1725 11.7749 21.2956 11.9398 21.4081 12.095L21.651 11.919C21.5367 11.7613 21.4118 11.594 21.2767 11.4188L21.0391 11.602ZM18.9501 9.25587C19.7196 10 20.4215 10.801 21.0391 11.602L21.2767 11.4188C20.6512 10.6076 19.9397 9.79557 19.1586 9.04022L18.9501 9.25587ZM12.5 5.98914C14.6075 5.98914 16.8102 7.18646 18.9501 9.25587L19.1586 9.04022C16.9945 6.9474 14.7205 5.68914 12.5 5.68914V5.98914ZM10.9168 6.20508C11.4488 6.06272 11.9773 5.98914 12.5 5.98914V5.68914C11.9489 5.68914 11.3944 5.76673 10.8392 5.91527L10.9168 6.20508ZM9.14569 4.54001L10.7719 6.16624L10.9841 5.95411L9.35783 4.32788L9.14569 4.54001ZM12.5 3.63319C11.376 3.63319 10.2732 3.86518 9.1962 4.29461L9.30732 4.57328C10.353 4.15634 11.4181 3.93319 12.5 3.93319V3.63319ZM20.5878 7.56229C18.0751 5.13235 15.3585 3.63319 12.5 3.63319V3.93319C15.2492 3.93319 17.8948 5.37533 20.3793 7.77795L20.5878 7.56229ZM22.9048 10.1633C22.222 9.27779 21.446 8.3922 20.5878 7.56229L20.3793 7.77795C21.2259 8.5967 21.9923 9.47123 22.6672 10.3465L22.9048 10.1633ZM23.7721 11.3723C23.6099 11.1187 23.3164 10.6971 22.9048 10.1633L22.6672 10.3465C23.075 10.8753 23.3631 11.2896 23.5194 11.5339L23.7721 11.3723ZM24.1264 11.9262L23.7721 11.3723L23.5194 11.5339L23.8736 12.0878L24.1264 11.9262ZM23.7721 12.6417L24.1264 12.0878L23.8736 11.9262L23.5194 12.48L23.7721 12.6417ZM22.9048 13.8506C23.3164 13.3169 23.6099 12.8953 23.7721 12.6417L23.5194 12.48C23.3631 12.7244 23.075 13.1387 22.6672 13.6675L22.9048 13.8506ZM20.9312 16.1124C21.654 15.3825 22.3142 14.6166 22.9048 13.8506L22.6672 13.6675C22.0835 14.4245 21.4314 15.1809 20.718 15.9013L20.9312 16.1124Z" fill="#F2F5F6"/>
</svg>
