<svg width="19" height="19" viewBox="0 0 19 19" fill="none" xmlns="http://www.w3.org/2000/svg">
<path d="M7.9177 2.24412C8.32042 0.585291 10.6796 0.585292 11.0823 2.24413C11.3424 3.31571 12.5701 3.82424 13.5118 3.25047C14.9696 2.36226 16.6377 4.03044 15.7495 5.48817C15.1758 6.42985 15.6843 7.65756 16.7559 7.9177C18.4147 8.32041 18.4147 10.6796 16.7559 11.0823C15.6843 11.3424 15.1758 12.5701 15.7495 13.5118C16.6377 14.9696 14.9696 16.6377 13.5118 15.7495C12.5701 15.1758 11.3424 15.6843 11.0823 16.7559C10.6796 18.4147 8.32042 18.4147 7.9177 16.7559C7.65756 15.6843 6.42985 15.1758 5.48818 15.7495C4.03044 16.6377 2.36226 14.9696 3.25047 13.5118C3.82424 12.5701 3.31571 11.3424 2.24413 11.0823C0.585292 10.6796 0.585291 8.32041 2.24412 7.9177C3.31571 7.65756 3.82424 6.42985 3.25047 5.48817C2.36226 4.03044 4.03044 2.36226 5.48817 3.25047C6.42985 3.82424 7.65756 3.31571 7.9177 2.24412Z" stroke="white" stroke-width="1.3" stroke-linecap="round" stroke-linejoin="round"/>
<path d="M12.3333 9.5C12.3333 11.0648 11.0648 12.3333 9.5 12.3333C7.93519 12.3333 6.66667 11.0648 6.66667 9.5C6.66667 7.93519 7.93519 6.66667 9.5 6.66667C11.0648 6.66667 12.3333 7.93519 12.3333 9.5Z" stroke="white" stroke-width="1.3" stroke-linecap="round" stroke-linejoin="round"/>
</svg>
