<svg width="226" height="135" viewBox="0 0 226 135" fill="none" xmlns="http://www.w3.org/2000/svg">
<path d="M12.0296 2.56098C13.6433 1.81176 16.1373 0.842177 17.6043 0.489603C19.9027 -0.0833299 38.5294 0.00497425 64.4361 0.00481363L67.3701 1.23882C69.8641 2.29655 86 11.5 98.6667 18.9904H157.05C198.371 18.9904 205.608 19.0785 208.004 19.6515C209.569 20.004 212.014 20.8414 213.384 21.5025C214.802 22.1195 217.198 23.7061 218.665 24.9401C220.132 26.2181 222.039 28.4217 222.919 29.832C223.751 31.2864 224.826 33.6222 225.218 35.0766C225.902 37.4124 226 36.8818 226 82.496C226 128.11 225.902 115.578 225.218 117.914C224.826 119.368 223.751 121.704 222.919 123.158C222.039 124.569 220.132 126.772 218.665 128.05C217.198 129.284 214.802 130.871 213.384 131.488C212.014 132.149 209.569 132.986 208.053 133.339C205.559 133.912 184.209 134 92.8137 134C33 135 20.4895 133.912 17.8488 133.295C16.2351 132.942 13.6433 131.973 12.0296 131.223C10.4648 130.43 8.01975 128.711 6.60162 127.389C5.2324 126.067 3.47196 123.908 2.78735 122.629C2.05384 121.395 1.12472 119.192 0.733513 117.826C0.0978018 115.622 0 125.642 0 68.3931C0 11.1439 0.0978018 18.1624 0.733513 15.9588C1.12472 14.5926 2.05384 12.389 2.78735 11.155C3.47196 9.87689 5.2324 7.71737 6.60162 6.39522C8.01975 5.07306 10.4648 3.35427 12.0296 2.56098Z" fill="#E5E9EA"/>
</svg>
