<svg width="24" height="19" viewBox="0 0 24 19" fill="none" xmlns="http://www.w3.org/2000/svg">
<path d="M2.0862 16.9452L8.33333 9.49999M21.9161 16.9428L15.6667 9.49999M1.03518 4.64285L9.86722 10.4987C10.6498 11.0156 11.0412 11.274 11.4639 11.3744C11.8376 11.4632 12.227 11.4632 12.6007 11.3744C13.0235 11.274 13.4148 11.0156 14.1974 10.4987L22.9648 4.64285M6.86667 18H17.1333C19.1869 18 20.2136 18 20.998 17.603C21.6879 17.2537 22.2488 16.6964 22.6004 16.011C23 15.2317 23 14.2116 23 12.1714V6.82857C23 4.78838 23 3.76828 22.6004 2.98903C22.2488 2.30359 21.6879 1.7463 20.998 1.39705C20.2136 1 19.1869 1 17.1333 1H6.86667C4.81314 1 3.78638 1 3.00203 1.39705C2.31211 1.7463 1.75118 2.30359 1.39964 2.98903C1 3.76828 1 4.78838 1 6.82857V12.1714C1 14.2116 1 15.2317 1.39964 16.011C1.75118 16.6964 2.31211 17.2537 3.00203 17.603C3.78638 18 4.81314 18 6.86667 18Z" stroke="black" stroke-width="1.8" stroke-linecap="round" stroke-linejoin="round"/>
</svg>
