<svg width="19" height="22" viewBox="0 0 19 22" fill="none" xmlns="http://www.w3.org/2000/svg">
<path d="M12.6875 16.5556H18L16.5073 14.9945C16.1024 14.5712 15.875 13.997 15.875 13.3983V9.88889C15.875 6.98619 14.101 4.51676 11.625 3.60157V3.22222C11.625 1.99492 10.6736 1 9.5 1C8.32639 1 7.375 1.99492 7.375 3.22222V3.60157C4.89897 4.51676 3.125 6.98619 3.125 9.88889V13.3983C3.125 13.997 2.89757 14.5712 2.49274 14.9945L1 16.5556H6.3125M12.6875 16.5556V17.6667C12.6875 19.5076 11.2604 21 9.5 21C7.73959 21 6.3125 19.5076 6.3125 17.6667V16.5556M12.6875 16.5556H6.3125" stroke="black" stroke-width="1.8" stroke-linecap="round" stroke-linejoin="round"/>
</svg>
