<svg width="23" height="19" viewBox="0 0 23 19" fill="none" xmlns="http://www.w3.org/2000/svg">
<path d="M1 10.0667V14.3733C1 15.6428 1 16.2775 1.25432 16.7624C1.47802 17.1889 1.83498 17.5356 2.27402 17.7529C2.77315 18 3.42654 18 4.73333 18H18.2667C19.5735 18 20.2269 18 20.726 17.7529C21.165 17.5356 21.522 17.1889 21.7457 16.7624C22 16.2775 22 15.6428 22 14.3733V10.0667M1 10.0667H5.28694C5.85764 10.0667 6.14301 10.0667 6.41154 10.1293C6.64963 10.1848 6.87723 10.2764 7.086 10.4007C7.32147 10.5409 7.52326 10.7369 7.9268 11.1289L8.0732 11.2711C8.47675 11.6631 8.67853 11.8591 8.914 11.9993C9.12277 12.1236 9.35037 12.2152 9.58846 12.2707C9.857 12.3333 10.1424 12.3333 10.7131 12.3333H12.2869C12.8576 12.3333 13.143 12.3333 13.4115 12.2707C13.6496 12.2152 13.8772 12.1236 14.086 11.9993C14.3215 11.8591 14.5232 11.6631 14.9268 11.2711L15.0732 11.1289C15.4767 10.7369 15.6785 10.5409 15.914 10.4007C16.1228 10.2764 16.3504 10.1848 16.5885 10.1293C16.857 10.0667 17.1424 10.0667 17.7131 10.0667H22M1 10.0667L3.71412 4.20762C4.25211 3.04624 4.52111 2.46553 4.94364 2.03989C5.31714 1.66364 5.77492 1.37611 6.28139 1.19963C6.85435 1 7.50986 1 8.82088 1H14.1791C15.4901 1 16.1456 1 16.7186 1.19963C17.2251 1.37611 17.6829 1.66364 18.0564 2.03989C18.4789 2.46554 18.7479 3.04623 19.2859 4.20762L22 10.0667" stroke="#131A29" stroke-width="1.8" stroke-linecap="round" stroke-linejoin="round"/>
</svg>
