<svg width="15" height="15" viewBox="0 0 15 15" fill="none" xmlns="http://www.w3.org/2000/svg">
<path d="M6.29001 1.95139C6.59796 0.68287 8.40204 0.68287 8.70999 1.95139C8.90893 2.77084 9.84776 3.15972 10.5679 2.72095C11.6826 2.04173 12.9583 3.3174 12.2791 4.43213C11.8403 5.15224 12.2292 6.09107 13.0486 6.29001C14.3171 6.59796 14.3171 8.40204 13.0486 8.70999C12.2292 8.90893 11.8403 9.84776 12.2791 10.5679C12.9583 11.6826 11.6826 12.9583 10.5679 12.2791C9.84776 11.8403 8.90893 12.2292 8.70999 13.0486C8.40204 14.3171 6.59796 14.3171 6.29001 13.0486C6.09107 12.2292 5.15224 11.8403 4.43213 12.2791C3.3174 12.9583 2.04173 11.6826 2.72095 10.5679C3.15972 9.84776 2.77084 8.90893 1.95139 8.70999C0.68287 8.40204 0.68287 6.59796 1.95139 6.29001C2.77084 6.09107 3.15972 5.15224 2.72095 4.43213C2.04173 3.3174 3.3174 2.04173 4.43213 2.72095C5.15224 3.15971 6.09107 2.77084 6.29001 1.95139Z" stroke="white" stroke-linecap="round" stroke-linejoin="round"/>
<path d="M9.66667 7.5C9.66667 8.69662 8.69662 9.66667 7.5 9.66667C6.30338 9.66667 5.33333 8.69662 5.33333 7.5C5.33333 6.30338 6.30338 5.33333 7.5 5.33333C8.69662 5.33333 9.66667 6.30338 9.66667 7.5Z" stroke="white" stroke-linecap="round" stroke-linejoin="round"/>
</svg>
