<svg width="10" height="11" viewBox="0 0 10 11" fill="none" xmlns="http://www.w3.org/2000/svg">
<path d="M3.95548 0.247567C4.13559 0.196784 4.45425 0.122302 4.66553 0.0782903C4.94955 0.0241219 5.17469 0.00380872 5.54876 0.000423191C5.87434 -0.00296234 6.1549 0.0139653 6.3454 0.0512061C6.50819 0.0782903 6.67445 0.125688 6.71947 0.152772C6.76104 0.179856 6.80606 0.234025 6.81645 0.278036C6.82685 0.318663 6.81992 0.389759 6.79567 0.437156C6.77489 0.484554 6.62249 0.606432 6.4597 0.707998C6.29344 0.809564 6.01982 1.02624 5.84663 1.18536C5.67345 1.34786 5.431 1.61193 5.30977 1.77782C5.18854 1.94372 5.02229 2.21794 4.9357 2.38383C4.8491 2.55311 4.74173 2.80364 4.6967 2.94245C4.64821 3.08125 4.5824 3.32501 4.54777 3.48413C4.49581 3.71435 4.48542 3.88701 4.49235 4.36437C4.49928 4.74016 4.52352 5.04486 4.55816 5.19382C4.58587 5.32247 4.65168 5.55269 4.70363 5.70165C4.75212 5.85061 4.85603 6.09437 4.93223 6.24333C5.00843 6.3923 5.15044 6.62928 5.24742 6.76809C5.34787 6.9069 5.57647 7.16758 5.75658 7.34702C5.95401 7.53999 6.22417 7.76005 6.43199 7.89209C6.62249 8.01735 6.89612 8.1697 7.03813 8.23402C7.18014 8.29835 7.39835 8.3796 7.52304 8.42023C7.64773 8.45747 7.87287 8.51502 8.02527 8.54549C8.21923 8.58612 8.47208 8.60305 8.87386 8.60305C9.18905 8.60305 9.52503 8.58612 9.61854 8.56581C9.76055 8.53534 9.80558 8.53534 9.87139 8.57935C9.91295 8.60643 9.96144 8.66737 9.98223 8.71477C10.0065 8.77232 10.0065 8.82988 9.97876 8.8942C9.95798 8.94498 9.76748 9.15489 9.55273 9.3614C9.34145 9.56792 9.05051 9.82184 8.9085 9.9234C8.76649 10.025 8.50671 10.1875 8.337 10.2823C8.16728 10.3771 7.8694 10.5159 7.6789 10.5904C7.4884 10.6648 7.17667 10.763 6.98617 10.8138C6.79567 10.8612 6.53244 10.912 6.40082 10.9255C6.27266 10.9391 6.15836 10.9594 6.15143 10.9763C6.14451 10.9898 5.8882 11 5.5834 11C5.2786 11 5.02229 10.9898 5.01536 10.9763C5.00843 10.9594 4.91145 10.9391 4.80061 10.9255C4.68631 10.9154 4.45425 10.8713 4.28453 10.8307C4.11481 10.7901 3.90353 10.7359 3.81694 10.7055C3.73035 10.6784 3.6299 10.6411 3.5918 10.6276C3.5537 10.6107 3.37359 10.5294 3.19348 10.4448C3.01337 10.3635 2.76745 10.2349 2.64969 10.1638C2.53539 10.0927 2.34835 9.97418 2.23751 9.8997C2.12668 9.82522 1.86344 9.59839 1.65216 9.39187C1.44088 9.18536 1.16725 8.87389 1.03909 8.69784C0.914402 8.52179 0.716975 8.20017 0.602674 7.98688C0.491838 7.77359 0.360219 7.48244 0.311728 7.34363C0.263237 7.20482 0.197428 6.99831 0.169719 6.88658C0.138546 6.77486 0.0865911 6.5548 0.0554183 6.39568C0.0138546 6.19255 0 5.92848 0 5.48159C0 4.98053 0.0138546 4.78756 0.0727366 4.51672C0.110837 4.33051 0.162791 4.11722 0.18011 4.04274C0.200891 3.96826 0.259773 3.79221 0.308264 3.65341C0.360219 3.5146 0.48491 3.2336 0.58882 3.02708C0.696193 2.82395 0.813957 2.61066 0.852057 2.55311C0.890157 2.49556 1.00792 2.33644 1.11529 2.19763C1.2192 2.05882 1.44434 1.80491 1.61752 1.63563C1.78724 1.46636 2.03662 1.2463 2.16824 1.14473C2.29986 1.04317 2.46612 0.928057 2.53192 0.887431C2.6012 0.846805 2.87483 0.704613 3.14153 0.575963C3.41169 0.443927 3.77191 0.29835 3.95548 0.247567Z" fill="white"/>
</svg>
