<svg width="13" height="17" viewBox="0 0 13 17" fill="none" xmlns="http://www.w3.org/2000/svg">
<path fill-rule="evenodd" clip-rule="evenodd" d="M6.59291 1.00374C7.07325 1.01398 7.32315 1.03445 7.55033 1.08223C7.7191 1.11978 8.01769 1.2051 8.21566 1.27335C8.41364 1.3382 8.72521 1.47471 8.91345 1.57368C9.10169 1.67265 9.36457 1.83306 9.49764 1.9252C9.6307 2.01735 9.86763 2.20506 10.0267 2.34157C10.1824 2.47808 10.4259 2.73405 10.5687 2.9081C10.7147 3.07874 10.9094 3.34494 11.0036 3.49511C11.0977 3.64527 11.234 3.88417 11.3086 4.0241C11.38 4.16403 11.4936 4.42681 11.5585 4.60428C11.6267 4.78175 11.7208 5.09914 11.7695 5.30391C11.8214 5.5121 11.8766 5.84655 11.8993 6.05474C11.922 6.28681 11.9512 7.88402 11.9772 10.2355C12.0064 12.9555 12.0064 14.0612 11.9837 14.1193C11.9577 14.1739 11.4806 14.4469 10.2928 15.0885C9.33536 15.6039 8.60188 15.9793 8.55644 15.9759C8.511 15.9759 8.44609 15.9417 8.41039 15.9008C8.34548 15.8325 8.34548 15.7574 8.30978 12.5971C8.29031 10.8191 8.28706 9.33447 8.30329 9.29693C8.31952 9.25598 8.65705 9.02732 9.87087 8.27308L9.88061 7.56321C9.88385 7.1093 9.87412 6.85675 9.85464 6.85675C9.83517 6.85675 9.33536 7.17415 8.74468 7.5598C8.15075 7.94886 7.6477 8.27991 7.62498 8.3038C7.59577 8.3311 7.60875 8.82596 7.68015 10.4744C7.72884 11.6484 7.76454 12.621 7.75805 12.6415C7.75156 12.662 7.48867 12.9179 7.17061 13.2149C6.71624 13.6381 6.57344 13.7541 6.50528 13.7507C6.43713 13.7507 6.27161 13.621 5.24603 12.6927V12.4094C5.24603 12.2559 5.26874 11.4675 5.29471 10.6621C5.32067 9.85664 5.34988 9.00343 5.38234 8.34134L4.72025 7.91814C4.36 7.68266 3.83748 7.35161 3.07154 6.85675L3.07478 8.30721L3.79528 8.73381C4.19124 8.9693 4.55473 9.20137 4.69429 9.34812V12.6074C4.69429 15.8223 4.69429 15.8666 4.62938 15.9349C4.59368 15.9724 4.52552 16.0032 4.47359 15.9997C4.42491 15.9997 3.64924 15.6073 2.73076 15.1226C1.45852 14.4503 1.06581 14.2251 1.03336 14.1602C1.0009 14.092 0.994412 13.2592 1.00415 10.0819C1.01713 6.14347 1.01713 6.08204 1.08853 5.69639C1.12748 5.48138 1.21835 5.11962 1.28975 4.89437C1.36115 4.66912 1.49422 4.33125 1.58509 4.14355C1.67272 3.95584 1.80903 3.70329 1.88368 3.58043C1.96157 3.45757 2.11087 3.24256 2.21797 3.10263C2.32507 2.96271 2.55875 2.70333 2.734 2.52586C2.91251 2.35181 3.20785 2.09926 3.39609 1.96957C3.58433 1.83647 3.85046 1.66924 3.99001 1.59757C4.12633 1.52249 4.34702 1.4201 4.47684 1.3655C4.60342 1.31089 4.85007 1.22899 5.01884 1.17779C5.18761 1.13001 5.46672 1.06858 5.63549 1.04128C5.85943 1.00374 6.11907 0.9935 6.59291 1.00374ZM5.15515 1.6317C5.0091 1.66924 4.77867 1.75115 4.64561 1.80576C4.51254 1.86377 4.30483 1.95933 4.1815 2.02418C4.06142 2.08561 3.83423 2.23236 3.67195 2.34498C3.50968 2.45761 3.276 2.64531 3.15267 2.76476C3.0261 2.8808 2.82488 3.09581 2.70479 3.23573C2.58471 3.37907 2.40621 3.61797 2.31209 3.76814C2.21797 3.9183 2.07192 4.17768 1.99078 4.34832C1.91289 4.51896 1.80254 4.78516 1.74737 4.94556C1.69544 5.10597 1.62079 5.37558 1.58509 5.54281C1.54615 5.71004 1.50071 6.01037 1.48124 6.20831C1.46177 6.43356 1.44878 7.91473 1.44878 10.2457V13.9213L4.23992 15.3888L4.22369 9.54607C3.01636 8.8089 2.65611 8.57682 2.64313 8.55635C2.63015 8.53246 2.61717 8.03077 2.61717 7.44376V6.37896C2.75348 6.23562 2.80865 6.21173 2.87031 6.21855C2.919 6.22538 3.59082 6.63151 4.36325 7.12295C5.13243 7.6144 5.77829 8.04783 5.79776 8.08537C5.82048 8.13315 5.81074 8.78501 5.76531 10.1058C5.72961 11.1808 5.7004 12.1535 5.7004 12.2661V12.4709L6.51177 13.2046L7.3199 12.4367C7.29718 12.0647 7.25175 11.0989 7.20956 10.0478C7.1414 8.43007 7.13491 8.12633 7.17386 8.06831C7.19657 8.03077 7.84243 7.59051 8.60837 7.08883C9.53983 6.47793 10.0299 6.17419 10.0883 6.17419C10.1402 6.17419 10.2052 6.20149 10.2376 6.2322C10.2863 6.2834 10.2993 6.37896 10.3188 6.83969C10.3317 7.14002 10.3415 7.63488 10.3415 7.93862C10.3415 8.44713 10.335 8.50174 10.2798 8.55293C10.2441 8.58706 9.87736 8.82255 9.46518 9.0751L8.71223 9.53583C8.74144 10.1433 8.75766 11.4538 8.7674 12.836C8.77714 14.2217 8.79012 15.3547 8.79985 15.3547C8.80959 15.3547 9.39054 15.0441 10.0916 14.6653C10.7893 14.2865 11.4092 13.952 11.4612 13.9213C11.5553 13.8667 11.5585 13.8531 11.5585 13.6449C11.5585 13.5254 11.5456 12.1296 11.5326 10.5426C11.5163 8.95565 11.4936 7.27312 11.4774 6.80556C11.4547 6.1776 11.432 5.86703 11.3833 5.62813C11.3476 5.45066 11.2729 5.16399 11.2145 4.99676C11.1593 4.82612 11.0555 4.55991 10.9808 4.39951C10.9062 4.23911 10.7504 3.95584 10.6303 3.76814C10.5102 3.58043 10.296 3.29716 10.1565 3.13676C10.0137 2.97636 9.79623 2.76135 9.6729 2.65555C9.54957 2.54975 9.36133 2.39959 9.25423 2.32451C9.14712 2.24942 8.91994 2.1095 8.75117 2.01735C8.58241 1.92862 8.30329 1.80234 8.13453 1.74432C7.96576 1.68289 7.69314 1.6044 7.53411 1.56344C7.30368 1.50884 7.1057 1.49177 6.57668 1.48154C6.11907 1.4713 5.83671 1.48154 5.66794 1.51225C5.53488 1.53614 5.30444 1.59075 5.15515 1.6317Z" fill="white" stroke="white" stroke-width="0.4"/>
</svg>
