<?xml version="1.0" encoding="utf-8"?>
<!-- Generator: Adobe Illustrator 24.3.0, SVG Export Plug-In . SVG Version: 6.00 Build 0)  -->
<svg version="1.1" id="Слой_1" xmlns="http://www.w3.org/2000/svg" xmlns:xlink="http://www.w3.org/1999/xlink" x="0px" y="0px"
	 viewBox="0 0 32 32" style="enable-background:new 0 0 32 32;" xml:space="preserve">
<style type="text/css">
	.st0{fill:#36A9E1;}
	.st1{fill:#FF3088;}
	.st2{fill:none;}
</style>
<g>
	<path class="st0" d="M15.76,17.39v0.22h-1.35c-0.28,0-0.51,0.23-0.51,0.51c0,0.1,0.01,0.2,0.01,0.25c0,0.03,0,0.06,0.01,0.1
		c0,0.04,0.01,0.08,0.02,0.09c0,0,0,0.02,0.01,0.04c0,0.04,0,0.05,0.02,0.11c0,0.02,0.01,0.04,0.02,0.06
		c0.01,0.07,0.04,0.13,0.04,0.14c0.03,0.1,0.07,0.2,0.1,0.25c0.05,0.12,0.11,0.22,0.18,0.32c0.03,0.04,0.07,0.09,0.13,0.17
		c0.05,0.06,0.11,0.13,0.15,0.16c0.33,0.32,0.72,0.54,1.16,0.64v0.27L16,20.65v-1.24c-0.25-0.05-0.48-0.16-0.67-0.34
		c-0.01-0.01-0.07-0.08-0.08-0.08c0,0-0.07-0.09-0.07-0.09c-0.04-0.05-0.07-0.1-0.12-0.21c-0.01-0.02-0.02-0.03-0.03-0.06H16v-1.08
		L15.76,17.39z"/>
	<path class="st0" d="M15.89,26.19l0.11-3.9l-0.24-0.21v0.21c-0.03,0-0.06,0-0.09-0.01c-0.28-0.03-0.56-0.07-0.84-0.14
		c-0.01,0-0.03-0.01-0.04-0.01c-2.73-0.68-4.63-3.12-4.63-5.94v-3.96l2.85-2.85c0.2-0.2,0.2-0.53,0-0.73l-0.2-0.2l0.56-0.56
		l0.31-0.31l2.08,2.07V10h0.12l0.27-1.68l-0.38-0.45v0.34l-1.71-1.71L12.6,5.07l0.75-0.74c0,0,0.01-0.01,0.01-0.01l2.4-2.4v0.26
		L16,1.78V0.26c-0.03,0.02-0.07,0.02-0.09,0.05l-2.92,2.92L12.15,2.4c-0.1-0.1-0.23-0.15-0.36-0.15S11.52,2.3,11.43,2.4l-3,3.01
		c-0.2,0.2-0.2,0.53,0,0.73l0.2,0.2L6.28,8.67c-0.1,0.1-0.15,0.23-0.15,0.36c0,0.14,0.05,0.27,0.15,0.36l2.84,2.83
		C8.19,12.47,7.5,13.3,7.5,14.3c0,1.01,0.71,1.85,1.65,2.08c0.08,3.09,2.1,5.74,5.03,6.63v1.86h-0.9c-1.76,0-3.42,0.69-4.67,1.94
		c-1.25,1.25-1.93,2.9-1.93,4.67C6.68,31.77,6.92,32,7.2,32h9.07c0.04,0,0.08-0.01,0.11-0.02L16,30.78L15.89,26.19z M11.79,3.49
		l0.47,0.47L11.51,4.7c-0.1,0.1-0.15,0.23-0.15,0.36s0.05,0.27,0.15,0.36l1.44,1.45l-0.98,0.99l-0.18,0.18L9.51,5.77L11.79,3.49z
		 M9.13,15.29c-0.36-0.19-0.6-0.56-0.6-0.99c0-0.43,0.25-0.81,0.6-0.99V15.29z M7.38,9.03l1.97-1.97l2.08,2.07
		c0.06,0.06,0.14,0.1,0.23,0.12c0.01,0,0.02,0.01,0.03,0.02l-0.8,0.8l-1.23,1.23L7.38,9.03z M15.76,30.97H7.74
		c0.12-1.29,0.68-2.5,1.61-3.43c1.05-1.05,2.45-1.64,3.94-1.64h1.36c0.02,0,0.04,0,0.06,0h1.06V30.97z M15.76,24.88h-0.54v-1.61
		c0.05,0.01,0.09,0.01,0.14,0.02c0.06,0.01,0.12,0.01,0.18,0.02c0.07,0.01,0.15,0.02,0.22,0.03V24.88z"/>
	<path class="st0" d="M14.22,12.67c-0.58-0.58-1.67-0.56-2.19-0.03c-0.1,0.09-0.17,0.18-0.21,0.24c-0.07,0.09-0.12,0.18-0.15,0.26
		c-0.05,0.1-0.08,0.2-0.1,0.3c-0.01,0.04-0.02,0.07-0.02,0.1c-0.01,0.07-0.02,0.16-0.02,0.24c0,0.08,0.01,0.16,0.04,0.32
		c0,0.01,0,0.01,0.01,0.02c0.01,0.05,0.02,0.09,0.04,0.15h0c0.01,0.03,0.02,0.06,0.02,0.08l0,0c0.01,0.02,0.02,0.04,0.03,0.07
		c0.04,0.09,0.09,0.18,0.13,0.25c0.05,0.08,0.12,0.17,0.19,0.23c0.3,0.3,0.69,0.46,1.11,0.46c0.42,0,0.82-0.16,1.1-0.45
		c0.14-0.13,0.26-0.3,0.34-0.5c0.09-0.18,0.13-0.4,0.13-0.63c0-0.22-0.05-0.44-0.13-0.61C14.47,12.96,14.35,12.79,14.22,12.67z
		 M13.61,13.98c0,0.01-0.01,0.02-0.01,0.02c-0.03,0.07-0.06,0.13-0.11,0.17c-0.23,0.23-0.61,0.16-0.8-0.03l-0.07-0.11
		c-0.01-0.02-0.01-0.04-0.02-0.06c0,0,0-0.01,0-0.01c0,0-0.03-0.1-0.03-0.1c0,0,0,0,0-0.01c0-0.02,0-0.05,0-0.07
		c0-0.02,0-0.04,0-0.06c0-0.01,0.01-0.02,0.01-0.04c0.01-0.03,0.02-0.05,0.02-0.08c0.01-0.01,0.04-0.09,0.05-0.1
		c0.01-0.01,0.08-0.1,0.09-0.11c0.2-0.21,0.56-0.21,0.78,0.01c0.04,0.03,0.07,0.09,0.11,0.18c0.02,0.05,0.04,0.12,0.04,0.19
		C13.65,13.86,13.64,13.93,13.61,13.98z"/>
	<g>
		<path class="st1" d="M24.11,27.02c-0.08-0.7-0.45-1.32-1.02-1.71c0.24-0.38,0.39-0.82,0.39-1.29c0-0.61-0.24-1.19-0.65-1.62
			c0.4-0.43,0.64-0.99,0.65-1.59c1.29-0.35,2.25-1.55,2.25-2.93c0-0.92-0.41-1.76-1.1-2.33c0.26-0.36,0.41-0.79,0.41-1.24
			c0-0.25-0.06-0.48-0.14-0.72c0.31-0.43,0.49-0.94,0.49-1.48c0-0.45-0.13-0.89-0.36-1.28c0.43-0.51,0.69-1.15,0.69-1.83
			c0-1.13-0.68-2.14-1.68-2.58c0.03-0.17,0.05-0.35,0.05-0.52c0-1.56-1.26-2.83-2.82-2.83c-0.33,0-0.65,0.06-0.95,0.17
			c-0.42-1.86-2.07-3.23-4.05-3.23c-0.28,0-0.51,0.23-0.51,0.51v7.32v1.51c-0.01,0.03-0.01,0.07-0.01,0.1v8.66v1.87v2.85v2.55
			c0,0,0,0,0,0s0,0,0,0v6.09c0,0.28,0.23,0.51,0.51,0.51h9.08c0.28,0,0.51-0.23,0.51-0.51C25.87,29.82,25.24,28.24,24.11,27.02z
			 M17.26,19.03c-0.03,0.04-0.07,0.07-0.11,0.1c-0.09,0.08-0.18,0.14-0.28,0.19c-0.03,0.01-0.05,0.03-0.08,0.04v-0.72h0.73
			C17.46,18.78,17.36,18.91,17.26,19.03z M17.2,23.29c0.04-0.01,0.09-0.01,0.13-0.01v1.6h-0.55v-1.54c0.08-0.01,0.17-0.02,0.25-0.03
			C17.09,23.3,17.15,23.3,17.2,23.29z M18.37,23.02c0.22-0.07,0.45-0.13,0.67-0.22c-0.22,0.37-0.34,0.79-0.34,1.22
			c0,0.3,0.07,0.59,0.17,0.86h-0.49V23.02z M20.07,24.93c-0.22-0.25-0.35-0.57-0.35-0.91c0-0.4,0.17-0.77,0.47-1.03
			c0.06,0.03,0.13,0.04,0.19,0.06c0.05,0.02,0.1,0.03,0.16,0.05c0.36,0.08,0.74,0.08,1.11-0.01c0.05-0.01,0.1-0.03,0.15-0.04
			c0.06-0.02,0.13-0.03,0.19-0.06c0.29,0.26,0.47,0.63,0.47,1.03c0,0.42-0.18,0.81-0.51,1.07c-0.1,0.08-0.21,0.14-0.32,0.19
			c-0.02,0.01-0.04,0.01-0.05,0.02c-0.18-0.07-0.35-0.13-0.54-0.18C20.73,25.03,20.4,24.97,20.07,24.93z M20.48,21.99
			c0.22-0.16,0.43-0.34,0.62-0.52c0.06-0.06,0.12-0.12,0.17-0.17c0.14-0.14,0.27-0.28,0.4-0.42c0.03-0.03,0.06-0.06,0.09-0.1
			c0.04,0.01,0.08,0.01,0.12,0.02c0.11,0.03,0.23,0.05,0.35,0.07c0.07,0.01,0.14,0.04,0.21,0.04c-0.04,0.43-0.29,0.82-0.67,1.04
			c-0.01,0.01-0.02,0.01-0.03,0.01c-0.1,0.05-0.19,0.09-0.3,0.12c-0.05,0.01-0.1,0.01-0.15,0.02c-0.07,0.01-0.14,0.02-0.2,0.03
			c-0.05,0-0.09-0.01-0.14-0.01c-0.07-0.01-0.14-0.01-0.21-0.03c-0.04-0.01-0.08-0.03-0.12-0.04
			C20.58,22.03,20.53,22.01,20.48,21.99z M24.7,17.87c0,1.03-0.8,1.91-1.86,2.01c-0.15,0.01-0.29-0.01-0.42-0.02
			c0.08-0.13,0.15-0.26,0.21-0.39c0.13-0.25,0.24-0.5,0.33-0.75c0.03-0.08,0.05-0.17,0.08-0.26c0.06-0.17,0.12-0.35,0.16-0.53
			c0.03-0.1,0.04-0.21,0.06-0.31c0.03-0.16,0.07-0.33,0.09-0.5c0.01-0.11,0.02-0.23,0.03-0.34c0.01-0.13,0.03-0.26,0.03-0.39
			c0.03-0.01,0.06-0.02,0.09-0.03c0.05-0.01,0.1-0.04,0.15-0.05c0.07-0.03,0.14-0.04,0.2-0.07C24.38,16.6,24.7,17.21,24.7,17.87z
			 M23.43,14.56c0.18-0.04,0.36-0.1,0.53-0.18c0.02-0.01,0.04-0.01,0.06-0.02c-0.02,0.34-0.19,0.66-0.48,0.86
			c-0.04,0.03-0.09,0.04-0.13,0.07v-0.72C23.42,14.56,23.43,14.56,23.43,14.56z M23.42,13.49v-1.7c0.15-0.03,0.29-0.07,0.43-0.12
			c0.03-0.01,0.07-0.03,0.1-0.04c0.1-0.04,0.2-0.08,0.29-0.13c0.09,0.19,0.13,0.4,0.13,0.61c0,0.39-0.14,0.75-0.42,1.03
			c-0.07,0.07-0.15,0.14-0.24,0.2c-0.03,0.02-0.07,0.04-0.1,0.05c-0.06,0.03-0.11,0.06-0.17,0.08
			C23.44,13.48,23.43,13.49,23.42,13.49z M23.65,7.42c0.01-0.01,0.02-0.02,0.03-0.03c0.61,0.29,1.02,0.92,1.02,1.62
			c0,0.54-0.24,1.04-0.65,1.38c-0.66,0.54-1.63,0.54-2.29,0c-0.41-0.34-0.65-0.85-0.65-1.38c0-0.09,0.01-0.19,0.03-0.28
			c0.03,0,0.05,0,0.08,0c0.02,0,0.04,0.01,0.07,0.01c0.09,0,0.18-0.02,0.27-0.03c0.06-0.01,0.12-0.01,0.19-0.02
			c0.18-0.03,0.35-0.08,0.51-0.14c0.01,0,0.01,0,0.02-0.01c0.37-0.14,0.71-0.35,0.99-0.63C23.41,7.76,23.54,7.6,23.65,7.42z
			 M19.69,6.58C19.69,6.58,19.69,6.58,19.69,6.58C19.69,6.57,19.7,6.57,19.69,6.58c0.02-0.03,0.03-0.05,0.04-0.06
			c0.21-0.3,0.38-0.64,0.51-1.02c0.07-0.21,0.12-0.43,0.15-0.63c0.02-0.1,0.04-0.21,0.03-0.25c0.01-0.03,0.01-0.07,0.01-0.09
			c0-0.04,0.01-0.07,0.01-0.08c0-0.03,0-0.06,0-0.09c0-0.01,0-0.01,0-0.02c0-0.01,0-0.03,0-0.04c0.26-0.13,0.54-0.2,0.83-0.2
			c0.99,0,1.79,0.81,1.79,1.8c0,0.24-0.04,0.46-0.12,0.66C22.85,6.8,22.72,7,22.54,7.18c-0.1,0.1-0.21,0.18-0.33,0.26
			c-0.03,0.02-0.07,0.04-0.1,0.06c-0.09,0.05-0.18,0.08-0.27,0.11c-0.04,0.01-0.09,0.03-0.14,0.04c-0.09,0.02-0.19,0.03-0.28,0.04
			c-0.04,0-0.08,0.01-0.12,0.01c-0.14,0-0.28-0.01-0.42-0.05c-0.15-0.03-0.29-0.09-0.42-0.16c-0.04-0.02-0.08-0.05-0.12-0.08
			c-0.09-0.05-0.17-0.11-0.24-0.17c-0.04-0.04-0.08-0.08-0.12-0.12c-0.06-0.07-0.12-0.14-0.18-0.21c-0.03-0.05-0.06-0.1-0.09-0.15
			c-0.02-0.04-0.04-0.08-0.06-0.13C19.66,6.62,19.68,6.6,19.69,6.58z M16.8,1.09c1.43,0.23,2.53,1.43,2.61,2.9
			c-0.01,0.07-0.01,0.14,0.01,0.21c0,0.06,0,0.12-0.01,0.21c0,0.01-0.01,0.13-0.01,0.14c0,0.04-0.01,0.09-0.02,0.15
			c-0.03,0.16-0.07,0.33-0.12,0.49C19.17,5.46,19.03,5.72,18.84,6c-0.05,0.07-0.1,0.14-0.16,0.21c-0.01,0.01-0.02,0.03-0.03,0.05
			c-0.06,0.08-0.14,0.15-0.18,0.2c0,0-0.08,0.07-0.08,0.07c-0.06,0.06-0.12,0.11-0.2,0.17c-0.17,0.13-0.36,0.25-0.57,0.34v0
			c-0.19,0.09-0.39,0.15-0.58,0.2c-0.04,0.01-0.08,0.02-0.13,0.03c-0.04,0.01-0.07,0.01-0.11,0.01V1.09z M16.79,9.57
			c0.01-0.03,0.01-0.07,0.01-0.1V8.33c0.09-0.01,0.17-0.04,0.26-0.05c0.08-0.01,0.15-0.03,0.23-0.05c0.26-0.07,0.52-0.15,0.77-0.27
			c0.28-0.13,0.52-0.28,0.75-0.46c0.03-0.02,0.06-0.05,0.09-0.07c0.3,0.46,0.72,0.83,1.23,1.05c-0.03,0.17-0.05,0.35-0.05,0.52
			c0,0.85,0.38,1.64,1.03,2.18c0.17,0.14,0.35,0.24,0.54,0.34c0.05,0.02,0.1,0.05,0.15,0.07c0.18,0.08,0.36,0.14,0.55,0.18
			c0.02,0,0.03,0.01,0.05,0.02v2.32v1.83v0.27c0,0.99-0.23,1.93-0.67,2.8c-0.15,0.3-0.32,0.58-0.52,0.84
			c-0.5,0.67-1.12,1.23-1.83,1.65c-0.5,0.29-1.05,0.51-1.63,0.65c-0.28,0.07-0.56,0.11-0.85,0.14c-0.03,0-0.06,0-0.09,0.01v-1.85
			c0.14-0.03,0.27-0.08,0.4-0.13c0.03-0.01,0.06-0.03,0.09-0.05c0.1-0.05,0.2-0.1,0.29-0.16c0.04-0.03,0.08-0.06,0.12-0.09
			c0.07-0.06,0.15-0.11,0.21-0.18c0.04-0.04,0.08-0.08,0.11-0.12c0.06-0.07,0.12-0.13,0.17-0.21c0.03-0.05,0.06-0.09,0.09-0.14
			c0.05-0.08,0.09-0.16,0.13-0.24c0.02-0.05,0.05-0.1,0.07-0.15c0.04-0.09,0.06-0.19,0.09-0.28c0.01-0.05,0.03-0.09,0.04-0.14
			c0.03-0.15,0.05-0.3,0.05-0.45c0-0.28-0.23-0.51-0.51-0.51h-1.35V9.57z M16.79,30.97v-5.06h1.06c0.02,0,0.04,0,0.05,0h1.36
			c0.17,0,0.34,0.01,0.52,0.03c0.34,0.03,0.67,0.09,0.97,0.18c0.21,0.06,0.41,0.13,0.6,0.21c0,0,0,0,0,0c0,0,0,0,0.01,0
			c0.34,0.14,0.67,0.31,0.98,0.52c0.31,0.2,0.6,0.44,0.87,0.71c0.01,0.01,0.02,0.03,0.04,0.04c0.9,0.92,1.45,2.11,1.56,3.38H16.79z"
			/>
		<path class="st1" d="M17.89,13.56c-0.01,0.08-0.02,0.14-0.02,0.22c0,0.87,0.71,1.58,1.57,1.58c0.87,0,1.58-0.71,1.58-1.58
			c0-0.08-0.01-0.16-0.03-0.24c0-0.01,0-0.02,0-0.04h0c-0.01-0.1-0.04-0.18-0.05-0.21c0-0.01-0.01-0.03-0.01-0.04l0.52-0.53
			c0.1-0.1,0.15-0.23,0.15-0.36S21.55,12.1,21.45,12c-0.2-0.2-0.53-0.2-0.73,0l-0.45,0.45c-0.02-0.01-0.03-0.02-0.04-0.02
			c-0.02-0.01-0.1-0.05-0.12-0.06c-0.05-0.02-0.1-0.04-0.15-0.06v-0.8c0-0.28-0.23-0.51-0.51-0.51s-0.51,0.23-0.51,0.51v0.8
			c-0.04,0.01-0.09,0.03-0.13,0.05c-0.01,0.01-0.09,0.05-0.11,0.05c-0.02,0.01-0.05,0.03-0.07,0.04l-0.43-0.44
			c-0.2-0.2-0.53-0.2-0.73,0s-0.2,0.53,0,0.73l0.51,0.51c-0.04,0.07-0.06,0.16-0.07,0.24C17.9,13.52,17.89,13.54,17.89,13.56z
			 M18.91,13.72c0.01-0.03,0.01-0.05,0.02-0.08c0.01-0.01,0.01-0.03,0.02-0.04c0.01-0.03,0.03-0.07,0.05-0.11
			c0.04-0.04,0.06-0.08,0.09-0.11c0.04-0.03,0.06-0.07,0.15-0.1c0.05-0.02,0.09-0.02,0.14-0.03c0.04,0,0.08,0,0.09,0l0.01,0
			c0.04,0,0.07,0,0.11,0.02c0,0,0.11,0.04,0.11,0.04c0.04,0.02,0.08,0.04,0.05,0.02c0.04,0.04,0.07,0.07,0.11,0.1
			c0.01,0.01,0.01,0.02,0.02,0.04c0.04,0.05,0.06,0.1,0.09,0.2c0,0,0,0.01,0,0.01c0,0.04,0.01,0.09,0.02,0.12
			c0,0.3-0.25,0.55-0.55,0.55c-0.3,0-0.54-0.25-0.54-0.55L18.91,13.72z"/>
	</g>
	<path class="st2" d="M11.97,7.86l0.98-0.99l-1.44-1.45c-0.1-0.1-0.15-0.23-0.15-0.36s0.05-0.27,0.15-0.36l0.74-0.74l-0.47-0.47
		L9.51,5.77l2.28,2.27L11.97,7.86z"/>
	<path class="st2" d="M8.53,14.3c0,0.43,0.25,0.8,0.6,0.99v-1.98C8.78,13.5,8.53,13.87,8.53,14.3z"/>
	<path class="st2" d="M11.68,9.27c-0.01,0-0.02-0.01-0.03-0.02c-0.08-0.02-0.16-0.06-0.23-0.12L9.35,7.06L7.38,9.03l2.28,2.27
		l1.23-1.23L11.68,9.27z"/>
	<path class="st2" d="M13.68,7.6l-0.31,0.31l-0.56,0.56l0.2,0.2c0.2,0.2,0.2,0.53,0,0.73l-2.85,2.85v3.96c0,2.82,1.9,5.26,4.63,5.94
		c0.01,0,0.03,0,0.04,0.01c0.27,0.07,0.55,0.11,0.84,0.14c0.03,0,0.06,0,0.09,0.01v-0.21l-0.17-0.15l0.17,0.15v-1.38l-0.27,0.06
		l0.27-0.06v-0.27c-0.43-0.1-0.83-0.32-1.16-0.64c-0.04-0.04-0.1-0.1-0.15-0.16c-0.06-0.08-0.1-0.13-0.13-0.17
		c-0.07-0.1-0.13-0.2-0.18-0.32c-0.03-0.05-0.07-0.15-0.1-0.25c-0.01-0.01-0.03-0.07-0.04-0.14c-0.01-0.02-0.01-0.04-0.02-0.06
		c-0.03-0.06-0.03-0.07-0.02-0.11c0-0.02-0.01-0.03-0.01-0.04c-0.01-0.01-0.02-0.05-0.02-0.09c-0.01-0.03-0.01-0.06-0.01-0.1
		c-0.01-0.05-0.01-0.14-0.01-0.25c0-0.28,0.23-0.51,0.51-0.51h1.35v-0.22l-0.15-0.11l0.15,0.11V10h-0.15h0.15V9.67L13.68,7.6z
		 M14.55,14.41c-0.09,0.2-0.2,0.37-0.34,0.5c-0.29,0.29-0.68,0.45-1.1,0.45c-0.42,0-0.81-0.17-1.11-0.46
		c-0.07-0.06-0.14-0.15-0.19-0.23c-0.05-0.06-0.1-0.15-0.13-0.25c-0.01-0.02-0.02-0.04-0.03-0.07l0,0
		c-0.01-0.02-0.02-0.05-0.02-0.08h0c-0.02-0.06-0.03-0.1-0.04-0.15c0-0.01,0-0.02-0.01-0.02c-0.03-0.16-0.04-0.24-0.04-0.32
		c0-0.08,0.01-0.17,0.02-0.24c0-0.03,0.01-0.07,0.02-0.1c0.02-0.1,0.05-0.2,0.1-0.3c0.03-0.08,0.08-0.17,0.15-0.26
		c0.04-0.06,0.11-0.15,0.21-0.24c0.53-0.54,1.61-0.56,2.19,0.03c0.13,0.12,0.25,0.3,0.33,0.5c0.08,0.17,0.13,0.38,0.13,0.61
		C14.68,14.01,14.64,14.22,14.55,14.41z"/>
	<path class="st2" d="M13.36,4.31c0,0-0.01,0.01-0.01,0.01L12.6,5.07l1.44,1.44l1.71,1.71V7.87L15.61,7.7l0.15,0.17v-5.7l-0.17,0.27
		l0.17-0.27V1.91L13.36,4.31z"/>
	<path class="st2" d="M14.65,25.91h-1.36c-1.49,0-2.89,0.58-3.94,1.64c-0.93,0.93-1.49,2.13-1.61,3.43h8.02v-5.06H14.7
		C14.68,25.91,14.66,25.91,14.65,25.91z"/>
	<path class="st2" d="M13.5,13.41c-0.22-0.22-0.58-0.22-0.78-0.01c-0.01,0.01-0.08,0.1-0.09,0.11c0,0.01-0.04,0.09-0.05,0.1
		c0,0.03-0.01,0.06-0.02,0.08c0,0.01-0.01,0.02-0.01,0.04c0,0.03,0,0.04,0,0.06c0,0.02,0,0.05,0,0.07c0,0,0,0,0,0.01
		c0,0,0.03,0.1,0.03,0.1c0,0,0,0.01,0,0.01c0.01,0.02,0.02,0.04,0.02,0.06l0.07,0.11c0.19,0.18,0.57,0.26,0.8,0.03
		c0.05-0.05,0.08-0.1,0.11-0.17c0-0.01,0.01-0.02,0.01-0.02c0.02-0.05,0.04-0.12,0.04-0.2c0-0.07-0.01-0.14-0.04-0.19
		C13.57,13.5,13.54,13.44,13.5,13.41z"/>
	<path class="st2" d="M15.35,23.29c-0.05-0.01-0.09-0.01-0.14-0.02v1.61h0.54v-1.54c-0.07-0.01-0.15-0.02-0.22-0.03
		C15.48,23.3,15.41,23.3,15.35,23.29z"/>
	<path class="st2" d="M15.06,18.69c0.05,0.1,0.08,0.15,0.12,0.21c0,0,0.07,0.09,0.07,0.09c0.01,0.01,0.07,0.08,0.08,0.08
		c0.19,0.19,0.42,0.29,0.67,0.34v-0.78h-0.97C15.04,18.66,15.05,18.68,15.06,18.69z"/>
</g>
</svg>
